# xmcd CD database file
# Generated: Tue Dec 24 10:24:43 2002 by KSCD
# 
# Track frame offsets:
#       150
#       13525
#       26345
#       38975
#       50120
#       61755
#       72813
#       85703
#       97980
#       108388
#       118875
#       131868
#       143588
#       155983
#       167438
#       180675
#       191538
#       200688
#       214548
#       225213
#
# Disc length: 3167 seconds
#
# Revision: 1
# Processed by: cddbd v1.4PL0 Copyright (c) Steve Scherf et al.
# Submitted via: Kscd 1.3.3
#
DISCID=0e0c5d14
DTITLE=Ray Charles - The Early Years
DYEAR=1900
DGENRE=
TTITLE0=Alone In The City
TTITLE1=Can Anyone Ask For More
TTITLE2=Rocking Chair Blues
TTITLE3=Let's Have A Ball
TTITLE4=How Long, Blues
TTITLE5=A Sentimental Blues
TTITLE6=When The Well Runs Dry
TTITLE7=I've Had My Fun
TTITLE8=Sitting On Top Of The World
TTITLE9=Ain't That Fine
TTITLE10=Dreams In One Basket
TTITLE11=Ray Charles Blues
TTITLE12=Honey Honey
TTITLE13=She's On The Ball
TTITLE14=Baby Wont You Please Come Home
TTITLE15=I Wonder Who's Kissing Her Now
TTITLE16=All To Myself
TTITLE17=Baby Let Me Hold Your Hand
TTITLE18=Hey Now
TTITLE19=I'm Glad For Your Sake
EXTD=
EXTT0=
EXTT1=
EXTT2=
EXTT3=
EXTT4=
EXTT5=
EXTT6=
EXTT7=
EXTT8=
EXTT9=
EXTT10=
EXTT11=
EXTT12=
EXTT13=
EXTT14=
EXTT15=
EXTT16=
EXTT17=
EXTT18=
EXTT19=
PLAYORDER=
